#!OML:ASF X:\für Bonn\!DataBase\2005_08_10_Bjorn_Final\c3d\bjorn.ASF
:FULLY-SPECIFIED
:DEGREES
114
root 0.426341 12.7602 3.40132 -179.208 0.432301 179.167
lowerback 19.9764 -1.36528 2.95763
upperback 10.0307 0.809292 0.649731
thorax -0.345139 1.35164 -1.15008
lowerneck -29.9636 1.54727 2.03701
upperneck 2.62096 0.595345 -4.27681
head 5.34491 -0.553449 -1.71035
rclavicle 1.82882e-014 1.90833e-014
rhumerus 85.5472 3.99323 -75.0761
rradius 7.13468
rwrist 47.5538
rhand -9.3508 8.02501
rfingers 7.12502
rthumb 16.6087 -21.2843
lclavicle 1.82882e-014 1.90833e-014
lhumerus 86.1245 -3.92483 82.366
lradius 5.48681
lwrist -60.1546
lhand -14.113 -3.28248
lfingers 7.12502
lthumb 12.0201 26.3523
rfemur -63.7669 -20.3436 13.2705
rtibia 117.502
rfoot -27.978 33.9229
rtoes -11.6503
lfemur -63.5832 16.6869 -19.2516
ltibia 120.093
lfoot -29.1175 -10.6446
ltoes -25.6909
115
root 0.429828 12.9575 3.37618 -179.035 0.470109 179.238
lowerback 19.4665 -1.30318 3.02695
upperback 9.97019 0.834927 0.693078
thorax -0.151542 1.3477 -1.13996
lowerneck -30.2964 1.47295 1.93512
upperneck 3.22512 0.594601 -4.21878
head 5.58703 -0.535634 -1.67974
rclavicle 2.06736e-014 2.14687e-014
rhumerus 85.7662 3.99525 -74.9719
rradius 7.10455
rwrist 47.5819
rhand -9.29467 7.9664
rfingers 7.12502
rthumb 16.6628 -21.3384
lclavicle 2.06736e-014 2.14687e-014
lhumerus 86.3003 -3.89058 82.3165
lradius 5.44885
lwrist -60.1032
lhand -14.099 -3.31101
lfingers 7.12502
lthumb 12.0336 26.323
rfemur -62.7131 -19.6087 13.5428
rtibia 115.756
rfoot -27.9216 33.3826
rtoes -11.5663
lfemur -62.5343 16.0353 -19.2674
ltibia 118.392
lfoot -29.131 -9.87309
ltoes -25.9557
116
root 0.433908 13.1578 3.34831 -178.884 0.495975 179.293
lowerback 18.9302 -1.23421 3.05552
upperback 9.91241 0.861747 0.757862
thorax 0.0589986 1.34274 -1.08366
lowerneck -30.5999 1.37745 1.80318
upperneck 3.84917 0.582842 -4.1664
head 5.83274 -0.522828 -1.64752
rclavicle -7.15625e-015 -7.95139e-015
rhumerus 85.9469 3.99627 -74.8319
rradius 7.08621
rwrist 47.674
rhand -9.18477 7.902
rfingers 7.12502
rthumb 16.7686 -21.3939
lclavicle -7.15625e-015 -7.95139e-015
lhumerus 86.4437 -3.8568 82.3048
lradius 5.42949
lwrist -60.0722
lhand -14.0832 -3.32638
lfingers 7.12502
lthumb 12.0489 26.3068
rfemur -61.5824 -18.9617 13.7704
rtibia 113.956
rfoot -27.8373 32.9198
rtoes -11.4667
lfemur -61.4315 15.4137 -19.267
ltibia 116.64
lfoot -29.1375 -9.19448
ltoes -26.3511
117
root 0.438043 13.3581 3.31844 -178.723 0.511108 179.347
lowerback 18.3312 -1.1636 3.07847
upperback 9.86664 0.886831 0.819556
thorax 0.315815 1.33771 -1.02551
lowerneck -30.8766 1.31107 1.75205
upperneck 4.44806 0.586872 -4.1922
head 6.06939 -0.509213 -1.65196
rclavicle -1.19271e-014 -2.94201e-014
rhumerus 86.1275 3.97211 -74.6976
rradius 7.08089
rwrist 47.7319
rhand -9.05233 7.87187
rfingers 7.12502
rthumb 16.8961 -21.4131
lclavicle -1.19271e-014 -2.94201e-014
lhumerus 86.6139 -3.85498 82.2872
lradius 5.37934
lwrist -60.1564
lhand -14.1791 -3.32714
lfingers 7.12502
lthumb 11.9564 26.3114
rfemur -60.4588 -18.3807 13.9832
rtibia 112.131
rfoot -27.6578 32.5653
rtoes -11.0482
lfemur -60.3173 14.8272 -19.2421
ltibia 114.843
lfoot -29.0768 -8.69558
ltoes -26.2659
118
root 0.4434 13.5611 3.28643 -178.59 0.518293 179.402
lowerback 17.7473 -1.08569 3.1374
upperback 9.80988 0.925592 0.845287
thorax 0.556355 1.34109 -1.02824
lowerneck -31.0353 1.22818 1.77067
upperneck 4.99353 0.548792 -4.24277
head 6.27273 -0.514232 -1.68003
rclavicle -1.03368e-014 -1.19271e-014
rhumerus 86.2398 3.90848 -74.6157
rradius 7.06204
rwrist 47.8298
rhand -8.96776 7.80557
rfingers 7.12502
rthumb 16.9775 -21.4725
lclavicle -1.03368e-014 -1.19271e-014
lhumerus 86.7599 -3.91082 82.2252
lradius 5.34409
lwrist -60.1591
lhand -14.1979 -3.35973
lfingers 7.12502
lthumb 11.9383 26.2799
rfemur -59.2593 -17.8544 14.1835
rtibia 110.251
rfoot -27.5102 32.2077
rtoes -10.7323
lfemur -59.1222 14.2668 -19.1808
ltibia 112.987
lfoot -29.0112 -8.29522
ltoes -26.0768
119
root 0.449331 13.7659 3.25223 -178.446 0.496494 179.456
lowerback 17.1353 -1.01633 3.15892
upperback 9.75131 0.945459 0.898689
thorax 0.809343 1.33268 -0.976833
lowerneck -31.1468 1.15999 1.76466
upperneck 5.49071 0.534755 -4.29381
head 6.45502 -0.509514 -1.70093
rclavicle -1.39149e-014 -1.27222e-014
rhumerus 86.3485 3.89583 -74.5103
rradius 7.0666
rwrist 47.8639
rhand -8.85099 7.71494
rfingers 7.12502
rthumb 17.0899 -21.5534
lclavicle -1.39149e-014 -1.27222e-014
lhumerus 86.8926 -3.93214 82.1907
lradius 5.30649
lwrist -60.1189
lhand -14.2427 -3.41542
lfingers 7.12502
lthumb 11.8951 26.2267
rfemur -58.0511 -17.4052 14.378
rtibia 108.332
rfoot -27.3632 31.8575
rtoes -10.4781
lfemur -57.9173 13.701 -19.1194
ltibia 111.07
lfoot -28.9278 -8.00651
ltoes -25.6652
120
root 0.454664 13.9697 3.21653 -178.321 0.443253 179.524
lowerback 16.5423 -0.947675 3.2109
upperback 9.67458 0.967953 0.960212
thorax 1.03503 1.3254 -0.935218
lowerneck -31.1728 1.06384 1.71691
upperneck 5.97424 0.502854 -4.33543
head 6.62109 -0.511386 -1.71382
rclavicle 8.74653e-015 9.54166e-015
rhumerus 86.4055 3.84552 -74.3872
rradius 7.01069
rwrist 47.7908
rhand -8.8036 7.6379
rfingers 7.12502
rthumb 17.1355 -21.6265
lclavicle 8.74653e-015 9.54166e-015
lhumerus 87.0035 -4.00476 82.1782
lradius 5.27481
lwrist -60.0751
lhand -14.2465 -3.4719
lfingers 7.12502
lthumb 11.8914 26.1704
rfemur -56.7909 -17.0264 14.556
rtibia 106.373
rfoot -27.1026 31.6559
rtoes -9.80243
lfemur -56.6657 13.1649 -19.0274
ltibia 109.107
lfoot -28.8121 -7.77053
ltoes -25.1878
121
root 0.46155 14.1772 3.17853 -178.184 0.394039 179.556
lowerback 15.9312 -0.869515 3.23932
upperback 9.56823 0.989692 0.984239
thorax 1.2406 1.31357 -0.919895
lowerneck -31.0661 0.97885 1.7333
upperneck 6.40642 0.464142 -4.37719
head 6.75212 -0.511759 -1.73618
rclavicle -7.55382e-015 -1.35174e-014
rhumerus 86.4037 3.79255 -74.3179
rradius 6.90224
rwrist 47.7507
rhand -8.78618 7.58158
rfingers 7.12502
rthumb 17.1523 -21.6813
lclavicle -7.55382e-015 -1.35174e-014
lhumerus 87.0567 -4.10645 82.1208
lradius 5.26405
lwrist -60.0474
lhand -14.1999 -3.57004
lfingers 7.12502
lthumb 11.9363 26.0697
rfemur -55.5189 -16.6909 14.7041
rtibia 104.363
rfoot -26.9339 31.3824
rtoes -9.50964
lfemur -55.3976 12.6566 -18.9798
ltibia 107.074
lfoot -28.7511 -7.44568
ltoes -25.0611
122
root 0.468367 14.3845 3.1388 -178.056 0.326633 179.59
lowerback 15.3296 -0.803702 3.23189
upperback 9.44097 0.988643 1.04641
thorax 1.41847 1.28602 -0.842008
lowerneck -30.8114 0.891628 1.67314
upperneck 6.74531 0.444692 -4.40037
head 6.83167 -0.502472 -1.73576
rclavicle 0 1.59028e-015
rhumerus 86.3802 3.82123 -74.2109
rradius 6.72518
rwrist 47.7058
rhand -8.78044 7.54564
rfingers 7.12502
rthumb 17.1578 -21.7168
lclavicle 0 1.59028e-015
lhumerus 87.0228 -4.15067 82.1094
lradius 5.29982
lwrist -59.9995
lhand -14.1256 -3.6348
lfingers 7.12502
lthumb 12.008 26.0007
rfemur -54.2074 -16.4166 14.8335
rtibia 102.307
rfoot -26.6627 31.2392
rtoes -8.90247
lfemur -54.1013 12.1678 -18.9233
ltibia 104.993
lfoot -28.6671 -7.20451
ltoes -24.6044
123
root 0.475481 14.5935 3.09704 -177.93 0.246998 179.639
lowerback 14.7266 -0.728516 3.28613
upperback 9.30052 1.00548 1.06978
thorax 1.58723 1.27002 -0.842164
lowerneck -30.5298 0.776594 1.65559
upperneck 7.1035 0.370673 -4.38748
head 6.91172 -0.512564 -1.73697
rclavicle -7.15625e-015 -6.36111e-015
rhumerus 86.2657 3.77166 -74.1555
rradius 6.56296
rwrist 47.6616
rhand -8.78812 7.52513
rfingers 7.12502
rthumb 17.1504 -21.738
lclavicle -7.15625e-015 -6.36111e-015
lhumerus 86.9604 -4.30008 82.0559
lradius 5.35604
lwrist -59.9759
lhand -14.0359 -3.7088
lfingers 7.12502
lthumb 12.0945 25.9217
rfemur -52.8659 -16.1803 14.9886
rtibia 100.192
rfoot -26.4449 31.0156
rtoes -8.43045
lfemur -52.7747 11.7117 -18.8397
ltibia 102.846
lfoot -28.5691 -7.05324
ltoes -24.1413
124
root 0.482324 14.8044 3.05322 -177.792 0.209637 179.671
lowerback 14.0958 -0.646073 3.2965
upperback 9.15538 1.02309 1.09673
thorax 1.76677 1.25162 -0.813501
lowerneck -30.1703 0.688293 1.64156
upperneck 7.38751 0.328802 -4.40228
head 6.96848 -0.511133 -1.73603
rclavicle -9.14409e-015 -4.77083e-015
rhumerus 86.1017 3.79252 -74.1057
rradius 6.46409
rwrist 47.5583
rhand -8.79291 7.49931
rfingers 7.12502
rthumb 17.1458 -21.7642
lclavicle -9.14409e-015 -4.77083e-015
lhumerus 86.8651 -4.39511 82.0045
lradius 5.43138
lwrist -59.9007
lhand -13.9519 -3.77951
lfingers 7.12502
lthumb 12.1755 25.8462
rfemur -51.5182 -15.9348 15.111
rtibia 98.023
rfoot -26.1926 30.8463
rtoes -8.01266
lfemur -51.4209 11.3104 -18.7784
ltibia 100.635
lfoot -28.4523 -6.93703
ltoes -23.4364
